<?xml version="1.0" standalone="no"?><!DOCTYPE svg PUBLIC "-//W3C//DTD SVG 1.1//EN" "http://www.w3.org/Graphics/SVG/1.1/DTD/svg11.dtd"><svg t="1766243790461" class="icon" viewBox="0 0 1024 1024" version="1.1" xmlns="http://www.w3.org/2000/svg" p-id="1662" xmlns:xlink="http://www.w3.org/1999/xlink" width="200" height="200"><path d="M284.687309 461.887772H76.587153v404.71577h208.100156V461.887772zM18.770468 932.072495l986.459064-0.036839v61.654075H18.770468v-61.617236z m928.699684-470.184723H739.433441v404.71577c110.370516 0 97.665172-0.074701 208.032618-0.074702l0.004093-404.641068zM323.174801 91.846664v774.755854h377.639142V92.002206l-377.639142-0.155542z m416.237151 0.192381l-0.050142 308.232514h265.867722v61.616213h-19.344542l0.077771 404.641068h19.266771v42.308511l-986.459064 0.078794v-42.312603H38.066914l-0.081864-404.71577H18.770468v-61.616213h265.845209l0.049119-308.232514-19.260631-0.074701V30.310269h493.189623v61.654075l-19.181836 0.074701z" fill="#7FAB29" p-id="1663"></path><path d="M862.653588 712.431515h46.244138V824.179398h-46.244138V712.431515z m-84.758237 0h46.241068V824.179398H777.895351V712.431515z m-578.004141 0h46.240045V824.179398h-46.240045V712.431515z m-84.786889 0h46.236975V824.179398h-46.236975V712.431515z m84.786889-200.49189h46.240045v154.213983h-46.240045V511.939625z m-84.786889 0h46.236975v154.213983h-46.236975V511.939625z m747.549267-0.036839h46.244138v154.212959h-46.244138V511.902786z m-84.758237 0h46.241068v154.212959H777.895351V511.902786zM592.918799 712.431515h53.947572V824.179398h-53.947572V712.431515z m0-200.49189h53.947572v154.17612h-53.947572V511.939625zM377.130559 712.431515h53.947572V824.179398h-53.947572V712.431515z m0-200.49189h53.947572v154.17612h-53.947572V511.939625z m107.89412 200.49189h53.946549V824.179398h-53.946549V712.431515z m0-200.49189h53.946549v154.17612h-53.946549V511.939625zM469.637255 145.794236h84.72242v92.481113h92.506696v88.707167h-92.506696v88.506599h-84.72242v-88.506599h-92.514882v-88.707167h92.514882z" fill="#7FAB29" p-id="1664"></path></svg>